<svg xmlns="http://www.w3.org/2000/svg" xmlns:xlink="http://www.w3.org/1999/xlink" width="1080" zoomAndPan="magnify" viewBox="0 0 810 809.999993" height="1080" preserveAspectRatio="xMidYMid meet" version="1.2"><defs><clipPath id="77f0868d57"><path d="M 27.703125 153.15625 L 780 153.15625 L 780 657 L 27.703125 657 Z M 27.703125 153.15625 "/></clipPath></defs><g id="9da2210e6f"><g clip-rule="nonzero" clip-path="url(#77f0868d57)"><path style=" stroke:none;fill-rule:nonzero;fill:#ffffff;fill-opacity:1;" d="M 771.601562 297.5625 L 408.289062 154.640625 C 405.339844 153.476562 402.0625 153.476562 399.113281 154.640625 L 35.796875 297.5625 C 31.132812 299.398438 28.011719 303.84375 27.863281 308.855469 C 27.71875 313.871094 30.574219 318.488281 35.125 320.59375 L 197.074219 395.480469 C 197.074219 395.480469 172.347656 553.085938 172.347656 553.085938 C 171.753906 556.871094 172.929688 560.726562 175.535156 563.539062 C 178.140625 566.359375 181.882812 567.882812 185.726562 567.511719 C 262.546875 561.355469 329.082031 588.386719 395.050781 652.613281 C 399.898438 657.332031 407.628906 657.359375 412.492188 652.648438 C 470.390625 596.761719 539.210938 568.921875 622.90625 567.550781 C 630.28125 567.59375 636.398438 560.363281 635.078125 553.085938 C 635.078125 553.085938 610.347656 395.46875 610.347656 395.46875 C 610.347656 395.46875 616.035156 392.839844 616.035156 392.839844 L 659.878906 404.835938 C 677.03125 409.53125 689.019531 425.457031 689.019531 443.5625 C 689.019531 443.5625 689.019531 510.398438 689.019531 510.398438 C 668.382812 515.964844 653.074219 534.65625 653.074219 557.023438 C 653.074219 557.023438 653.074219 617.140625 653.074219 617.140625 C 653.074219 624.058594 658.679688 629.667969 665.605469 629.667969 L 737.492188 629.667969 C 744.417969 629.667969 750.023438 624.058594 750.023438 617.140625 C 750.023438 617.140625 750.023438 557.023438 750.023438 557.023438 C 750.023438 534.65625 734.714844 515.964844 714.078125 510.398438 L 714.078125 443.5625 C 714.078125 414.195312 694.5 388.332031 666.484375 380.671875 L 651.324219 376.523438 L 772.277344 320.59375 C 782.070312 316.46875 781.730469 301.121094 771.601562 297.5625 Z M 724.964844 557.023438 L 724.964844 604.609375 L 678.132812 604.609375 L 678.132812 557.023438 C 678.941406 526.15625 724.15625 526.148438 724.964844 557.023438 Z M 608.125 542.980469 C 528.332031 547.085938 461.265625 574.476562 403.859375 626.425781 C 339.609375 566.878906 274.21875 539.574219 199.496094 541.6875 L 220.71875 406.414062 L 398.441406 488.589844 C 401.78125 490.132812 405.617188 490.132812 408.960938 488.589844 C 408.960938 488.589844 586.695312 406.40625 586.695312 406.40625 Z M 613.816406 366.261719 L 407.003906 309.679688 C 400.359375 307.816406 393.441406 311.777344 391.621094 318.460938 C 389.789062 325.132812 393.722656 332.019531 400.398438 333.84375 L 578.527344 382.578125 L 403.699219 463.417969 L 72.246094 310.152344 L 403.699219 179.761719 L 735.15625 310.152344 Z M 613.816406 366.261719 "/></g></g></svg>